<?xml version="1.0" encoding="utf-8"?>
<!-- Generator: Adobe Illustrator 16.0.0, SVG Export Plug-In . SVG Version: 6.00 Build 0)  -->
<!DOCTYPE svg PUBLIC "-//W3C//DTD SVG 1.1//EN" "http://www.w3.org/Graphics/SVG/1.1/DTD/svg11.dtd">
<svg version="1.1" id="Layer_1" xmlns="http://www.w3.org/2000/svg" xmlns:xlink="http://www.w3.org/1999/xlink" x="0px" y="0px"
	 width="300px" height="55px" viewBox="0 0 300 55" enable-background="new 0 0 300 55" xml:space="preserve">
<g>
	<g>
		<path fill="#231F20" d="M111.448,1.528c-0.712,0-0.947,0.428-0.996,0.663l-2.18,18.196l-2.226-14.12h-0.43
			c-2.178,0-2.746,0.71-2.937,2.652l-1.658,11.468L98.749,2.242c-0.049-0.238-0.235-0.713-1.042-0.713H95.1l4.122,33.171h3.128
			l2.273-16.822l2.321,16.822h3.177l4.029-33.171H111.448z"/>
	</g>
	<g>
		<path fill="#231F20" d="M156.897,2.573c0-0.569-0.471-0.996-1.044-1.045h-2.366v33.171h8.149c1.088,0,1.611-0.475,1.847-0.904
			c0.144-0.284,0.711-1.607,1.088-2.46h-7.674V2.573z"/>
	</g>
	<g>
		<path fill="#231F20" d="M189.215,1.625h-3.554l-4.168,11.989V1.528h-2.274c-0.379,0.049-1.088,0.24-1.088,1.28v31.891h3.362
			V19.866l4.549,14.833h3.554l-5.734-18.148L189.215,1.625z"/>
	</g>
	<g>
		<path fill="#231F20" d="M237.603,20.91l4.076-19.382h-2.512c-0.095,0-0.946,0.049-1.089,1.138l-2.179,12.556l-2.181-12.556
			c-0.143-1.089-0.994-1.138-1.089-1.138h-2.512l4.076,19.382v12.795c0.045,0.565,0.473,0.994,0.993,0.994h2.415V20.91z"/>
	</g>
	<g>
		<path fill="#231F20" d="M269.879,34.699V1.528h-2.088c-1.232,0-1.47,1.045-1.517,1.187l-3.743,19.093l-3.931-19.046
			c0,0-0.19-1.234-1.519-1.234h-2.084v33.171h3.363V17.593l1.992,8.672c0.187,0.711,0.567,2.701,2.559,2.701h1.04l2.56-11.373
			v17.106H269.879z"/>
	</g>
	<g>
		<path fill="#231F20" d="M295.75,33.795c0.143-0.284,0.712-1.607,1.091-2.46h-7.104V19.821c0-0.428,0.377-0.806,0.805-0.806h1.421
			c1.093,0,1.563-0.474,1.8-0.902c0.142-0.285,0.71-1.654,1.089-2.51h-5.114V5.747c0-0.472,0.33-0.806,0.805-0.806h2.748
			c1.091,0,1.607-0.522,1.801-0.947l1.135-2.466h-8.858c-0.569,0-0.993,0.428-1.042,0.949v32.222h7.579
			C294.994,34.699,295.513,34.225,295.75,33.795z"/>
	</g>
	<g>
		<path fill="#231F20" d="M210.78,1.528h-6.156v33.171h6.156c2.325,0,4.172-1.85,4.218-4.172v-9.712c0,0,0.019-1.11-0.747-1.953
			c-0.28-0.307-0.659-0.583-1.194-0.749c0.535-0.164,0.914-0.44,1.194-0.747c0.766-0.843,0.747-1.953,0.747-1.953V5.699
			C214.952,3.379,213.105,1.528,210.78,1.528z M211.583,14.606c0,0.252-0.053,0.433-0.096,0.624l-1.263,1.265l-1.617,1.618
			l1.617,1.62l1.27,1.267c0.04,0.184,0.089,0.345,0.089,0.574v8.01c0,1.275-0.848,1.751-1.752,1.751h-1.844V19.68v-0.438v-2.69
			V4.941h1.844c0.904,0,1.752,0.474,1.752,1.707V14.606z"/>
	</g>
	<g>
		<path fill="#231F20" d="M131.687,1.528h-1.849l-5.023,33.171h3.742l2.988-22.84l1.398,10.716l-2.449,2.45l3.188,3.187l0.847,6.487
			h3.743l-4.784-31.369C133.342,2.432,133.104,1.528,131.687,1.528z"/>
	</g>
	<g>
		<path fill="#231F20" d="M99.287,50.604v-3.578c0-0.438-0.174-0.8-0.52-1.082c-0.348-0.282-0.789-0.428-1.326-0.428
			c-0.476,0-0.878,0.094-1.204,0.283c-0.325,0.187-0.605,0.486-0.844,0.9l0.532,0.305c0.171-0.31,0.371-0.543,0.605-0.696
			c0.235-0.151,0.507-0.228,0.815-0.228c0.385,0,0.694,0.088,0.92,0.256c0.225,0.174,0.337,0.404,0.337,0.689v0.561
			c-1.288,0.232-2.193,0.525-2.718,0.886c-0.526,0.357-0.786,0.849-0.786,1.468c0,0.457,0.141,0.829,0.427,1.112
			c0.286,0.285,0.657,0.428,1.118,0.428c0.349,0,0.68-0.071,0.997-0.213c0.316-0.144,0.637-0.359,0.954-0.651
			c0.005,0.104,0.017,0.215,0.034,0.334c0.017,0.115,0.042,0.257,0.078,0.423h0.678c-0.028-0.174-0.054-0.329-0.071-0.464
			C99.298,50.776,99.287,50.674,99.287,50.604z M98.596,49.909c-0.352,0.356-0.674,0.616-0.969,0.777
			c-0.297,0.163-0.594,0.243-0.895,0.243c-0.297,0-0.528-0.088-0.698-0.271c-0.168-0.181-0.253-0.43-0.253-0.75
			c0-0.43,0.188-0.77,0.566-1.021c0.38-0.256,1.127-0.505,2.248-0.75V49.909z"/>
	</g>
	<g>
		<path fill="#231F20" d="M113.009,45.504c-0.306,0-0.603,0.073-0.889,0.215c-0.289,0.146-0.566,0.361-0.838,0.647h-0.057
			l-0.176-0.748h-0.504v7.843h0.68v-2.834h0.057c0.267,0.28,0.544,0.493,0.832,0.631c0.286,0.143,0.586,0.213,0.895,0.213
			c0.651,0,1.166-0.271,1.555-0.804c0.385-0.537,0.581-1.265,0.581-2.181c0-0.912-0.196-1.639-0.581-2.174
			C114.175,45.772,113.66,45.504,113.009,45.504z M114.067,50.293c-0.26,0.418-0.631,0.628-1.115,0.628
			c-0.303,0-0.588-0.085-0.863-0.258c-0.274-0.172-0.561-0.451-0.863-0.832V47.16c0.3-0.378,0.583-0.652,0.857-0.825
			c0.275-0.167,0.563-0.255,0.869-0.255c0.484,0,0.855,0.209,1.115,0.627c0.262,0.422,0.394,1.017,0.394,1.79
			C114.461,49.275,114.329,49.873,114.067,50.293z"/>
	</g>
	<g>
		<path fill="#231F20" d="M128.402,45.504c-0.309,0-0.605,0.073-0.893,0.215c-0.285,0.146-0.565,0.361-0.838,0.647h-0.054
			l-0.179-0.748h-0.503v7.843h0.682v-2.834h0.054c0.27,0.28,0.547,0.493,0.833,0.631c0.285,0.143,0.586,0.213,0.897,0.213
			c0.647,0,1.167-0.271,1.552-0.804c0.388-0.537,0.58-1.265,0.58-2.181c0-0.912-0.192-1.639-0.58-2.174
			C129.569,45.772,129.05,45.504,128.402,45.504z M129.461,50.293c-0.264,0.418-0.634,0.628-1.118,0.628
			c-0.301,0-0.589-0.085-0.864-0.258c-0.271-0.172-0.56-0.451-0.86-0.832V47.16c0.298-0.378,0.583-0.652,0.855-0.825
			c0.277-0.167,0.563-0.255,0.869-0.255c0.484,0,0.854,0.209,1.118,0.627c0.26,0.422,0.39,1.017,0.39,1.79
			C129.851,49.275,129.721,49.873,129.461,50.293z"/>
	</g>
	<g>
		<path fill="#231F20" d="M145.059,50.604v-3.578c0-0.438-0.178-0.8-0.522-1.082c-0.347-0.282-0.789-0.428-1.327-0.428
			c-0.476,0-0.878,0.094-1.203,0.283c-0.325,0.187-0.605,0.486-0.844,0.9l0.532,0.305c0.17-0.31,0.375-0.543,0.608-0.696
			c0.232-0.151,0.504-0.228,0.813-0.228c0.389,0,0.695,0.088,0.92,0.256c0.228,0.174,0.341,0.404,0.341,0.689v0.561
			c-1.292,0.232-2.197,0.525-2.722,0.886c-0.523,0.357-0.786,0.849-0.786,1.468c0,0.457,0.141,0.829,0.428,1.112
			c0.285,0.285,0.658,0.428,1.12,0.428c0.345,0,0.676-0.071,0.994-0.213c0.321-0.144,0.638-0.359,0.954-0.651
			c0.01,0.104,0.018,0.215,0.034,0.334c0.016,0.115,0.042,0.257,0.083,0.423h0.673c-0.028-0.174-0.053-0.329-0.071-0.464
			C145.065,50.776,145.059,50.674,145.059,50.604z M144.364,49.909c-0.347,0.356-0.674,0.616-0.969,0.777
			c-0.296,0.163-0.594,0.243-0.895,0.243c-0.294,0-0.529-0.088-0.696-0.271c-0.171-0.181-0.255-0.43-0.255-0.75
			c0-0.43,0.189-0.77,0.566-1.021c0.379-0.256,1.13-0.505,2.248-0.75V49.909z"/>
	</g>
	<g>
		<path fill="#231F20" d="M157.791,45.782c-0.26,0.178-0.492,0.457-0.689,0.835h-0.064v-0.999h-0.682v5.754h0.682V47.73
			c0.16-0.535,0.373-0.928,0.643-1.18c0.266-0.249,0.604-0.371,1.007-0.371h0.092v-0.664h-0.032
			C158.373,45.516,158.055,45.604,157.791,45.782z"/>
	</g>
	<g>
		<path fill="#231F20" d="M172.039,50.635c-0.255,0.189-0.563,0.286-0.933,0.286c-0.547,0-0.965-0.21-1.257-0.628
			c-0.296-0.42-0.441-1.022-0.443-1.813l3.794-0.003v-0.184c0-0.905-0.188-1.597-0.557-2.072c-0.365-0.479-0.902-0.718-1.598-0.718
			c-0.705,0-1.269,0.275-1.69,0.821c-0.422,0.548-0.631,1.283-0.631,2.209c0,0.901,0.211,1.615,0.633,2.14
			c0.422,0.53,0.991,0.797,1.707,0.797c0.5,0,0.926-0.118,1.269-0.354c0.345-0.234,0.643-0.61,0.898-1.132l-0.505-0.272
			C172.523,50.139,172.293,50.444,172.039,50.635z M169.923,46.574c0.292-0.335,0.669-0.504,1.133-0.504
			c0.463,0,0.825,0.169,1.087,0.502c0.266,0.335,0.403,0.804,0.418,1.411h-3.154C169.459,47.383,169.631,46.912,169.923,46.574z"/>
	</g>
	<g>
		<rect x="184.025" y="43.427" fill="#231F20" width="0.679" height="7.945"/>
	</g>
	<g>
		<rect x="195.638" y="48.117" fill="#231F20" width="2.688" height="0.601"/>
	</g>
	<g>
		<path fill="#231F20" d="M209.305,52.021c0,0.346-0.049,0.584-0.14,0.704c-0.096,0.125-0.26,0.188-0.493,0.188
			c-0.064,0-0.132-0.01-0.211-0.025c-0.079-0.021-0.164-0.046-0.253-0.077v0.596c0.119,0.022,0.233,0.04,0.338,0.047
			c0.104,0.013,0.193,0.018,0.264,0.018c0.386,0,0.68-0.096,0.878-0.291c0.199-0.195,0.3-0.483,0.3-0.863v-6.699h-0.683V52.021z"/>
	</g>
	<g>
		<rect x="209.229" y="43.427" fill="#231F20" width="0.825" height="0.971"/>
	</g>
	<g>
		<path fill="#231F20" d="M224.197,50.635c-0.253,0.189-0.563,0.286-0.931,0.286c-0.547,0-0.965-0.21-1.257-0.628
			c-0.296-0.42-0.443-1.022-0.445-1.813l3.792-0.003v-0.184c0-0.905-0.187-1.597-0.553-2.072c-0.369-0.479-0.9-0.718-1.602-0.718
			c-0.703,0-1.267,0.275-1.688,0.821c-0.424,0.548-0.629,1.283-0.629,2.209c0,0.901,0.209,1.615,0.631,2.14
			c0.424,0.53,0.991,0.797,1.709,0.797c0.5,0,0.924-0.118,1.269-0.354c0.345-0.234,0.643-0.61,0.894-1.132l-0.502-0.272
			C224.68,50.139,224.453,50.444,224.197,50.635z M222.085,46.574c0.288-0.335,0.665-0.504,1.129-0.504
			c0.463,0,0.825,0.169,1.089,0.502c0.262,0.335,0.401,0.804,0.415,1.411h-3.153C221.619,47.383,221.791,46.912,222.085,46.574z"/>
	</g>
	<g>
		<polygon fill="#231F20" points="240.914,50.384 239.53,45.618 238.909,45.618 237.525,50.313 236.148,45.618 235.479,45.618 
			237.16,51.372 237.821,51.372 239.22,46.753 240.592,51.372 241.255,51.372 242.941,45.618 242.278,45.618 		"/>
	</g>
	<g>
		<path fill="#231F20" d="M256.452,50.635c-0.256,0.189-0.563,0.286-0.929,0.286c-0.55,0-0.969-0.21-1.261-0.628
			c-0.292-0.42-0.44-1.022-0.442-1.813l3.793-0.003v-0.184c0-0.905-0.187-1.597-0.556-2.072c-0.366-0.479-0.899-0.718-1.6-0.718
			c-0.703,0-1.269,0.275-1.69,0.821c-0.421,0.548-0.626,1.283-0.626,2.209c0,0.901,0.209,1.615,0.631,2.14
			c0.421,0.53,0.988,0.797,1.704,0.797c0.503,0,0.929-0.118,1.273-0.354c0.343-0.234,0.641-0.61,0.894-1.132l-0.503-0.272
			C256.938,50.139,256.707,50.444,256.452,50.635z M254.34,46.574c0.29-0.335,0.667-0.504,1.131-0.504
			c0.462,0,0.823,0.169,1.087,0.502c0.263,0.335,0.4,0.804,0.417,1.411h-3.154C253.873,47.383,254.046,46.912,254.34,46.574z"/>
	</g>
	<g>
		<path fill="#231F20" d="M269.879,45.782c-0.262,0.178-0.492,0.457-0.693,0.835h-0.063v-0.999h-0.684v5.754h0.684V47.73
			c0.16-0.535,0.371-0.928,0.639-1.18c0.27-0.249,0.605-0.371,1.011-0.371h0.09v-0.664h-0.03
			C270.459,45.516,270.139,45.604,269.879,45.782z"/>
	</g>
	<g>
		<rect x="281.356" y="43.427" fill="#231F20" width="0.681" height="7.945"/>
	</g>
	<g>
		<path fill="#231F20" d="M296.701,45.618l-1.683,4.895l-1.69-4.895h-0.686l1.999,5.722c-0.111,0.561-0.273,0.962-0.488,1.198
			c-0.22,0.237-0.527,0.353-0.929,0.353c-0.083,0-0.164-0.002-0.243-0.008c-0.083-0.009-0.16-0.022-0.239-0.04v0.555
			c0.098,0.016,0.192,0.022,0.292,0.032c0.1,0.007,0.198,0.01,0.304,0.01c0.471,0,0.846-0.117,1.123-0.359
			c0.275-0.237,0.519-0.655,0.724-1.257l2.165-6.205H296.701z"/>
	</g>
	<g>
		<polygon fill="#231F20" points="75.847,36.343 77.897,38.399 79.95,36.343 77.897,34.29 		"/>
	</g>
	<g>
		<path fill="#231F20" d="M76.159,29.248c0,0.547,0.449,0.941,0.998,1h2.258V11.679c0-3.104-1.354-5.457-3.256-7.113
			c-1.563-1.366-3.505-2.267-5.521-2.734c-0.829-0.194-1.685-0.303-2.538-0.303c-2.833,0-5.842,1.123-8.044,2.914
			C59.645,4.77,59.262,5.1,58.92,5.483l-0.575,0.614l-0.549-0.643c-0.34-0.383-0.711-0.739-1.107-1.08
			c-2.092-1.793-4.98-2.846-8.001-2.846c-3.969,0-11.37,2.968-11.37,10.15v8.783c0,0-12.202,0-12.202,0.029H3.582
			c-0.507,0-0.878,0.424-0.932,0.941v2.109h15.227v19.07c0,7.17,7.403,10.152,11.369,10.152c3.585,0,6.991-1.479,9.098-3.937
			l0.56-0.634l0.575,0.617c2.217,2.395,5.814,3.953,9.182,3.953c2.503,0,5.676-0.984,8.018-3.011
			c1.913-1.667,3.295-4.02,3.295-7.142v-8.248h-2.271c-0.561,0.039-1.024,0.465-1.024,1.025v7.62
			c-0.261,4.336-4.833,6.744-8.018,6.744c-3.285,0-8.046-2.598-8.046-6.69c0,0,0-24.076,0.027-24.076v-7.309
			c0-4.595,4.762-7.139,8.046-7.139c3.692,0,7.619,2.46,8.001,6.21v19.498h2.342c0.546-0.059,0.999-0.467,1.039-1.014V11.159
			c0-4.047,4.762-6.62,8.03-6.62c3.298,0,8.06,2.544,8.06,7.139V29.248z M37.29,42.943c0,4.076-4.159,6.811-8.044,6.811
			c-3.363,0-8.046-2.723-8.046-7.142v-19.07h16.09V42.943z"/>
	</g>
</g>
</svg>
